<?xml version="1.0" encoding="utf-8"?>
<!-- Generator: Adobe Illustrator 16.0.0, SVG Export Plug-In . SVG Version: 6.00 Build 0)  -->
<!DOCTYPE svg PUBLIC "-//W3C//DTD SVG 1.1 Tiny//EN" "http://www.w3.org/Graphics/SVG/1.1/DTD/svg11-tiny.dtd">
<svg version="1.1" baseProfile="tiny" id="Layer_1" xmlns="http://www.w3.org/2000/svg" xmlns:xlink="http://www.w3.org/1999/xlink"
	 x="0px" y="0px" width="218px" height="40.875px" viewBox="0 0 218 40.875" xml:space="preserve">
<g>
	<path fill="#FF9900" d="M54.276,16.111c-0.005-0.004-0.128-0.024-0.371-0.072c-0.236-0.046-0.555-0.098-0.944-0.166
		c-0.395-0.067-0.828-0.132-1.303-0.2c-0.471-0.068-0.945-0.121-1.415-0.167c-0.478-0.046-0.914-0.071-1.312-0.071
		c-1.293,0-2.41,0.195-3.34,0.585c-0.934,0.387-1.65,0.956-2.155,1.712c-0.506,0.756-0.759,1.688-0.761,2.79
		c-0.004,0.733,0.091,1.378,0.289,1.931c0.195,0.549,0.512,1.033,0.936,1.444s0.976,0.781,1.663,1.098
		c0.682,0.322,1.507,0.616,2.477,0.888c0.619,0.173,1.134,0.34,1.54,0.502c0.404,0.159,0.723,0.327,0.952,0.493
		c0.228,0.172,0.39,0.359,0.479,0.563c0.092,0.206,0.139,0.437,0.136,0.698c0.003,0.654-0.207,1.128-0.641,1.413
		c-0.436,0.282-1.119,0.425-2.057,0.418c-0.369,0-0.771-0.018-1.21-0.048c-0.44-0.025-0.876-0.062-1.317-0.105
		c-0.438-0.04-0.839-0.082-1.209-0.124c-0.362-0.042-0.661-0.079-0.882-0.104c-0.225-0.03-0.337-0.046-0.342-0.046l-0.356,3.082
		c0.007,0,0.13,0.024,0.369,0.069c0.243,0.051,0.559,0.109,0.953,0.176c0.4,0.072,0.832,0.139,1.308,0.21
		c0.469,0.067,0.946,0.125,1.415,0.171c0.47,0.052,0.903,0.071,1.296,0.074c0.904,0,1.727-0.107,2.478-0.324
		c0.75-0.217,1.398-0.545,1.946-0.983c0.551-0.432,0.975-0.984,1.276-1.643c0.301-0.657,0.454-1.432,0.458-2.313
		c0.004-0.747-0.077-1.386-0.238-1.917c-0.162-0.535-0.428-0.988-0.803-1.372c-0.372-0.387-0.871-0.731-1.502-1.031
		c-0.629-0.305-1.409-0.603-2.341-0.89c-0.72-0.225-1.314-0.423-1.784-0.603c-0.468-0.18-0.831-0.351-1.101-0.521
		c-0.261-0.172-0.445-0.358-0.549-0.56c-0.107-0.196-0.158-0.432-0.154-0.698c-0.004-0.563,0.224-0.985,0.679-1.261
		c0.457-0.28,1.158-0.418,2.094-0.418c0.251,0,0.548,0.008,0.886,0.029c0.343,0.021,0.705,0.042,1.083,0.074
		c0.382,0.03,0.753,0.063,1.12,0.097c0.362,0.035,0.694,0.066,0.99,0.097c0.298,0.028,0.534,0.055,0.714,0.075
		c0.177,0.016,0.266,0.028,0.271,0.028L54.276,16.111L54.276,16.111z M57.099,33.026h3.41v-12.53h-3.41V33.026L57.099,33.026z
		 M57.099,18.917h3.41v-3.433h-3.41V18.917L57.099,18.917z M67.328,33.026v-9.248c0.002-0.005,0.083-0.025,0.236-0.066
		c0.148-0.043,0.344-0.093,0.582-0.146c0.233-0.055,0.48-0.103,0.737-0.145c0.257-0.043,0.492-0.068,0.708-0.068
		c0.388,0,0.709,0.063,0.947,0.188c0.237,0.125,0.414,0.323,0.536,0.582c0.118,0.262,0.2,0.599,0.242,1.004
		c0.039,0.411,0.062,0.895,0.056,1.459v6.441h3.408v-6.491c0-0.253-0.002-0.53-0.017-0.834c-0.008-0.306-0.02-0.602-0.034-0.886
		c-0.012-0.285-0.024-0.518-0.034-0.703c-0.013-0.185-0.017-0.28-0.017-0.284c0.004-0.005,0.082-0.028,0.225-0.075
		c0.147-0.045,0.341-0.099,0.576-0.163c0.237-0.063,0.495-0.116,0.77-0.164c0.273-0.048,0.537-0.073,0.796-0.073
		c0.453,0,0.806,0.085,1.051,0.258c0.247,0.176,0.423,0.449,0.529,0.81c0.101,0.368,0.163,0.838,0.181,1.403
		c0.022,0.574,0.024,1.251,0.022,2.04v5.163h3.407v-6.543c0.005-1.067-0.068-1.998-0.213-2.783c-0.149-0.791-0.39-1.442-0.729-1.955
		c-0.337-0.516-0.796-0.896-1.376-1.149c-0.577-0.249-1.297-0.376-2.16-0.376c-0.463,0.006-0.947,0.06-1.449,0.159
		c-0.504,0.105-1.007,0.233-1.501,0.394c-0.497,0.155-0.965,0.313-1.4,0.475c-0.338-0.337-0.767-0.593-1.278-0.767
		c-0.507-0.172-1.12-0.261-1.827-0.261c-0.182,0-0.385,0.026-0.605,0.068c-0.225,0.042-0.445,0.096-0.666,0.158
		c-0.3,0.097-0.582,0.196-0.844,0.298c-0.263,0.105-0.475,0.191-0.635,0.265c-0.164,0.071-0.247,0.109-0.252,0.114v-0.602h-3.384
		v12.505H67.328L67.328,33.026z M85.467,38.287h3.408v-5.161c0.004,0,0.066,0.012,0.2,0.029c0.126,0.02,0.295,0.045,0.503,0.069
		c0.207,0.026,0.438,0.052,0.683,0.067c0.247,0.022,0.49,0.033,0.728,0.033c0.778,0.003,1.474-0.059,2.093-0.178
		c0.62-0.127,1.156-0.336,1.618-0.631c0.464-0.293,0.846-0.693,1.15-1.206c0.305-0.507,0.534-1.14,0.688-1.906
		c0.146-0.766,0.224-1.678,0.224-2.744c0-1.197-0.101-2.208-0.31-3.036c-0.208-0.826-0.522-1.486-0.937-1.989
		c-0.417-0.5-0.937-0.862-1.564-1.084c-0.627-0.226-1.362-0.336-2.202-0.331c-0.317,0.006-0.639,0.052-0.975,0.139
		c-0.335,0.088-0.644,0.188-0.928,0.3c-0.291,0.114-0.523,0.213-0.699,0.302c-0.175,0.088-0.269,0.133-0.272,0.138v-0.576h-3.408
		V38.287L85.467,38.287z M91.089,23.304c0.453-0.006,0.841,0.094,1.175,0.307c0.331,0.211,0.585,0.561,0.762,1.055
		c0.183,0.492,0.276,1.154,0.276,1.995c0.01,0.881-0.063,1.588-0.211,2.121c-0.151,0.535-0.411,0.925-0.785,1.163
		c-0.378,0.238-0.899,0.353-1.571,0.35c-0.185,0-0.378-0.008-0.591-0.022c-0.211-0.011-0.417-0.025-0.607-0.04
		c-0.19-0.017-0.347-0.029-0.47-0.042c-0.125-0.013-0.188-0.019-0.191-0.019v-6.393c0.004-0.005,0.081-0.029,0.224-0.074
		c0.147-0.045,0.332-0.102,0.56-0.164c0.226-0.061,0.469-0.117,0.719-0.162C90.63,23.327,90.868,23.304,91.089,23.304L91.089,23.304
		z M99.357,33.026h3.408V15.484h-3.408V33.026L99.357,33.026z M111.363,30.244c-0.604,0-1.098-0.067-1.474-0.211
		c-0.373-0.14-0.648-0.357-0.82-0.657c-0.179-0.302-0.269-0.685-0.274-1.163h7.481l0.252-2.356c0.005-1.891-0.454-3.302-1.365-4.236
		c-0.917-0.936-2.315-1.4-4.182-1.4c-1.856,0-3.26,0.565-4.202,1.684c-0.941,1.122-1.414,2.801-1.418,5.032
		c-0.003,1.499,0.185,2.72,0.562,3.662c0.384,0.94,0.977,1.633,1.782,2.071c0.807,0.443,1.849,0.659,3.127,0.656
		c0.48-0.003,0.959-0.022,1.456-0.074c0.496-0.046,0.971-0.104,1.428-0.171c0.456-0.071,0.863-0.138,1.224-0.21
		c0.362-0.066,0.649-0.125,0.859-0.176c0.215-0.045,0.317-0.069,0.322-0.069l-0.052-2.607c-0.003,0-0.096,0.009-0.286,0.026
		c-0.191,0.01-0.445,0.032-0.77,0.055c-0.32,0.02-0.685,0.047-1.095,0.066c-0.401,0.021-0.823,0.041-1.266,0.054
		C112.216,30.235,111.783,30.244,111.363,30.244L111.363,30.244z M108.77,25.633c0.004-0.552,0.081-1.008,0.227-1.366
		c0.141-0.359,0.372-0.625,0.694-0.801s0.755-0.264,1.291-0.264c0.53-0.004,0.959,0.076,1.279,0.235
		c0.329,0.156,0.56,0.417,0.7,0.776c0.142,0.354,0.213,0.831,0.209,1.419H108.77z"/>
	<path fill="#3399CC" d="M132.037,16.111c-0.005-0.004-0.132-0.024-0.369-0.072c-0.24-0.046-0.556-0.098-0.946-0.166
		c-0.395-0.067-0.829-0.132-1.303-0.2c-0.469-0.068-0.949-0.121-1.417-0.167c-0.476-0.046-0.911-0.071-1.31-0.071
		c-1.296,0-2.408,0.195-3.344,0.585c-0.932,0.387-1.647,0.956-2.152,1.712c-0.502,0.756-0.758,1.688-0.763,2.79
		c-0.004,0.733,0.095,1.378,0.293,1.931c0.196,0.549,0.508,1.033,0.931,1.444c0.424,0.411,0.982,0.781,1.664,1.098
		c0.683,0.322,1.513,0.616,2.483,0.888c0.618,0.173,1.131,0.34,1.537,0.502c0.402,0.159,0.721,0.327,0.951,0.493
		c0.229,0.172,0.389,0.359,0.479,0.563c0.092,0.206,0.138,0.437,0.13,0.698c0.008,0.654-0.202,1.128-0.636,1.413
		c-0.437,0.282-1.122,0.425-2.055,0.418c-0.372,0-0.775-0.018-1.213-0.048c-0.438-0.025-0.877-0.062-1.317-0.105
		c-0.437-0.04-0.843-0.082-1.207-0.124c-0.366-0.042-0.663-0.079-0.886-0.104c-0.22-0.03-0.337-0.046-0.343-0.046l-0.354,3.082
		c0.01,0,0.133,0.024,0.368,0.069c0.241,0.051,0.561,0.109,0.954,0.176c0.4,0.072,0.832,0.139,1.307,0.21
		c0.472,0.067,0.947,0.125,1.417,0.171c0.468,0.052,0.901,0.071,1.295,0.074c0.905,0,1.725-0.107,2.481-0.324
		c0.748-0.217,1.395-0.545,1.944-0.983c0.549-0.432,0.974-0.984,1.274-1.643c0.298-0.657,0.454-1.432,0.458-2.313
		c0.005-0.747-0.077-1.386-0.235-1.917c-0.164-0.535-0.431-0.988-0.806-1.372c-0.371-0.387-0.87-0.731-1.502-1.031
		c-0.631-0.305-1.41-0.603-2.339-0.89c-0.725-0.225-1.316-0.423-1.784-0.603c-0.469-0.18-0.833-0.351-1.103-0.521
		c-0.263-0.172-0.445-0.358-0.551-0.56c-0.106-0.196-0.156-0.432-0.152-0.698c-0.004-0.563,0.224-0.985,0.677-1.261
		c0.457-0.28,1.16-0.418,2.096-0.418c0.25,0,0.547,0.008,0.887,0.029c0.346,0.021,0.706,0.042,1.083,0.074
		c0.379,0.03,0.751,0.063,1.116,0.097c0.364,0.035,0.697,0.066,0.994,0.097c0.296,0.028,0.536,0.055,0.709,0.075
		c0.182,0.016,0.273,0.028,0.275,0.028L132.037,16.111L132.037,16.111z M139.896,20.22c-1.103,0.006-2.03,0.164-2.78,0.482
		c-0.747,0.313-1.351,0.763-1.804,1.34c-0.453,0.58-0.774,1.27-0.977,2.065c-0.196,0.8-0.295,1.683-0.292,2.653
		c-0.003,0.971,0.096,1.853,0.292,2.651c0.202,0.803,0.523,1.495,0.977,2.075c0.453,0.586,1.057,1.037,1.804,1.356
		c0.75,0.316,1.678,0.479,2.78,0.481c1.104-0.003,2.033-0.165,2.784-0.481c0.749-0.319,1.354-0.771,1.805-1.356
		c0.45-0.58,0.772-1.272,0.971-2.075c0.202-0.799,0.299-1.681,0.295-2.651c0.004-0.971-0.093-1.854-0.295-2.653
		c-0.198-0.796-0.521-1.485-0.971-2.065c-0.45-0.577-1.056-1.027-1.805-1.34C141.929,20.384,140.999,20.226,139.896,20.22
		L139.896,20.22z M139.896,30.294c-0.621,0-1.104-0.134-1.457-0.404c-0.346-0.27-0.597-0.665-0.728-1.187
		c-0.141-0.525-0.209-1.174-0.203-1.942c-0.006-0.769,0.063-1.416,0.203-1.934c0.131-0.523,0.382-0.916,0.728-1.178
		c0.353-0.264,0.836-0.396,1.457-0.396c0.624,0,1.108,0.133,1.461,0.396c0.345,0.262,0.594,0.654,0.732,1.178
		c0.14,0.518,0.204,1.165,0.2,1.934c0.004,0.769-0.061,1.417-0.2,1.942c-0.139,0.521-0.388,0.917-0.732,1.187
		C141.004,30.16,140.52,30.294,139.896,30.294L139.896,30.294z M151.854,23.527h3.079v-3.031h-3.079V19.95
		c-0.005-0.411,0.028-0.74,0.103-0.996c0.071-0.249,0.198-0.434,0.372-0.546c0.18-0.113,0.428-0.172,0.744-0.169
		c0.21,0,0.426,0.006,0.649,0.01c0.222,0.005,0.43,0.008,0.623,0.018c0.199,0.004,0.357,0.012,0.476,0.016
		c0.119,0.004,0.184,0.009,0.187,0.009l0.055-2.731c-0.004,0-0.077-0.013-0.224-0.034c-0.14-0.021-0.33-0.05-0.558-0.084
		c-0.229-0.029-0.475-0.062-0.739-0.095c-0.261-0.029-0.512-0.058-0.759-0.079c-0.238-0.021-0.45-0.034-0.621-0.034
		c-0.694-0.004-1.275,0.071-1.75,0.23c-0.479,0.155-0.859,0.414-1.148,0.769c-0.286,0.359-0.5,0.844-0.627,1.443
		c-0.133,0.606-0.191,1.354-0.191,2.248v0.572h-1.371v3.031h1.371v9.499h3.409V23.527L151.854,23.527z M163.787,23.527v-3.031
		h-3.129v-3.483h-3.409v3.483h-1.504v3.031h1.504v5.033c-0.003,0.898,0.062,1.654,0.181,2.266c0.132,0.616,0.345,1.104,0.652,1.471
		c0.299,0.368,0.706,0.632,1.213,0.79c0.514,0.164,1.154,0.241,1.922,0.238c0.231-0.003,0.485-0.02,0.779-0.059
		c0.293-0.038,0.576-0.078,0.852-0.129c0.278-0.051,0.501-0.091,0.683-0.129c0.178-0.039,0.271-0.059,0.279-0.059l-0.15-2.881
		c-0.004,0-0.072,0.004-0.203,0.007c-0.129,0.005-0.293,0.009-0.498,0.018c-0.2,0.008-0.411,0.013-0.63,0.016
		c-0.223,0.004-0.417,0.009-0.605,0.009c-0.347,0-0.599-0.067-0.748-0.196c-0.154-0.133-0.25-0.333-0.279-0.605
		c-0.029-0.271-0.047-0.613-0.037-1.035v-4.754H163.787L163.787,23.527z M164.571,20.496l2.369,12.53h5.391l1.453-7.685l1.422,7.685
		h5.475l2.362-12.53h-3.358l-1.547,9.488h-0.615l-1.929-9.262h-3.566l-1.935,9.262h-0.608l-1.551-9.488H164.571L164.571,20.496z
		 M194.95,24.53c0-1.006-0.17-1.829-0.518-2.464c-0.342-0.638-0.845-1.103-1.507-1.402c-0.668-0.298-1.486-0.449-2.451-0.444
		c-0.423,0-0.872,0.026-1.352,0.076c-0.476,0.051-0.946,0.109-1.415,0.18c-0.466,0.071-0.888,0.146-1.263,0.218
		c-0.379,0.07-0.685,0.129-0.914,0.178c-0.225,0.047-0.345,0.073-0.351,0.077l0.102,2.43c0.006,0,0.121-0.011,0.339-0.021
		c0.215-0.012,0.498-0.029,0.856-0.049c0.354-0.021,0.74-0.039,1.161-0.062c0.428-0.019,0.844-0.036,1.262-0.048
		c0.419-0.014,0.796-0.021,1.143-0.021c0.505,0,0.886,0.113,1.133,0.34c0.242,0.226,0.367,0.565,0.367,1.014v0.652l-2.724,0.199
		c-0.701,0.047-1.325,0.143-1.875,0.283c-0.551,0.147-1.018,0.358-1.398,0.649c-0.386,0.282-0.676,0.664-0.879,1.137
		c-0.198,0.471-0.3,1.061-0.3,1.764c-0.004,1.335,0.323,2.353,0.974,3.052c0.646,0.701,1.64,1.056,2.973,1.059
		c0.483-0.003,0.94-0.049,1.388-0.137c0.443-0.087,0.843-0.188,1.198-0.301c0.35-0.114,0.63-0.212,0.841-0.301
		c0.2-0.088,0.306-0.136,0.31-0.139c0.354,0.23,0.696,0.409,1.038,0.538c0.346,0.13,0.724,0.219,1.139,0.269
		c0.415,0.051,0.905,0.07,1.463,0.07l0.101-2.53c-0.231-0.042-0.405-0.108-0.521-0.204c-0.112-0.097-0.195-0.226-0.236-0.385
		c-0.039-0.158-0.069-0.354-0.083-0.589V24.53L194.95,24.53z M191.543,27.514v2.68c-0.004,0.004-0.099,0.021-0.271,0.06
		c-0.176,0.036-0.394,0.08-0.662,0.128c-0.264,0.051-0.538,0.093-0.821,0.13c-0.271,0.039-0.525,0.059-0.74,0.059
		c-0.451-0.004-0.774-0.138-0.97-0.395c-0.184-0.261-0.28-0.616-0.275-1.058c0.007-0.447,0.132-0.787,0.378-1.013
		c0.247-0.226,0.599-0.359,1.049-0.392L191.543,27.514L191.543,27.514z M198.487,33.026h3.409v-8.119
		c0-0.005,0.138-0.067,0.42-0.184c0.274-0.119,0.678-0.262,1.204-0.426c0.525-0.165,1.162-0.322,1.911-0.47V20.22
		c-0.502,0.102-0.968,0.231-1.396,0.39c-0.429,0.163-0.806,0.326-1.128,0.492c-0.317,0.162-0.566,0.306-0.74,0.417
		c-0.179,0.116-0.266,0.175-0.271,0.179v-1.176h-3.409V33.026L198.487,33.026z M212.837,30.244c-0.604,0-1.096-0.067-1.476-0.211
		c-0.375-0.14-0.648-0.357-0.823-0.657c-0.174-0.302-0.268-0.685-0.272-1.163h7.48L218,25.856c0.005-1.891-0.452-3.302-1.369-4.236
		c-0.917-0.936-2.309-1.4-4.176-1.4c-1.857,0-3.261,0.565-4.2,1.684c-0.947,1.122-1.418,2.801-1.424,5.032
		c-0.005,1.499,0.189,2.72,0.565,3.662c0.381,0.94,0.977,1.633,1.783,2.071c0.807,0.443,1.846,0.659,3.123,0.656
		c0.475-0.003,0.963-0.022,1.457-0.074c0.496-0.046,0.975-0.104,1.428-0.171c0.457-0.071,0.866-0.138,1.224-0.21
		c0.363-0.066,0.646-0.125,0.862-0.176c0.21-0.045,0.314-0.069,0.319-0.069l-0.051-2.607c-0.004,0-0.101,0.009-0.287,0.026
		c-0.191,0.01-0.444,0.032-0.767,0.055c-0.324,0.02-0.69,0.047-1.097,0.066c-0.4,0.021-0.824,0.041-1.267,0.054
		C213.688,30.235,213.255,30.244,212.837,30.244L212.837,30.244z M210.241,25.633c0.003-0.552,0.083-1.008,0.227-1.366
		c0.141-0.359,0.375-0.625,0.695-0.801c0.319-0.176,0.751-0.264,1.292-0.264c0.531-0.004,0.96,0.076,1.28,0.235
		c0.319,0.156,0.557,0.417,0.693,0.776c0.147,0.354,0.22,0.831,0.216,1.419H210.241z"/>
	<path fill-rule="evenodd" fill="#3399CC" d="M10.712,23.415C1.4,6.744,25.925-10.86,38.7,8.431c2.22,0.086,3.991,1.886,3.991,4.093
		c0,2.262-1.864,4.096-4.16,4.096c-2.297,0-4.161-1.833-4.161-4.096c0-1.143,0.476-2.177,1.242-2.92
		C25.1-3.715,10.314,9.105,15.61,19.952c0.289-0.04,0.584-0.06,0.885-0.06c3.564,0,6.457,2.847,6.457,6.36
		c0,3.515-2.892,6.36-6.457,6.36c-3.569,0-6.46-2.846-6.46-6.36C10.036,25.232,10.281,24.27,10.712,23.415L10.712,23.415z
		 M16.496,22.075c-2.342,0-4.245,1.872-4.245,4.178c0,2.308,1.902,4.179,4.245,4.179c2.341,0,4.241-1.871,4.241-4.179
		C20.737,23.947,18.837,22.075,16.496,22.075L16.496,22.075z M38.532,9.833c-1.509,0-2.733,1.204-2.733,2.691
		c0,1.486,1.224,2.69,2.733,2.69c1.507,0,2.732-1.204,2.732-2.69C41.264,11.037,40.039,9.833,38.532,9.833z"/>
	<path fill-rule="evenodd" fill="#FF9900" d="M31.979,17.46C41.291,34.13,16.767,51.733,3.99,32.445C1.773,32.359,0,30.558,0,28.352
		c0-2.264,1.86-4.097,4.161-4.097c2.297,0,4.159,1.833,4.159,4.097c0,1.143-0.475,2.176-1.24,2.921
		c10.51,13.32,25.297,0.499,20.001-10.348c-0.289,0.039-0.583,0.059-0.884,0.059c-3.567,0-6.458-2.848-6.458-6.361
		c0-3.512,2.892-6.362,6.458-6.362c3.567,0,6.46,2.85,6.46,6.362C32.657,15.642,32.413,16.606,31.979,17.46L31.979,17.46z
		 M26.196,18.8c2.343,0,4.244-1.87,4.244-4.178c0-2.307-1.9-4.178-4.244-4.178s-4.239,1.871-4.239,4.178
		C21.957,16.93,23.853,18.8,26.196,18.8L26.196,18.8z M4.161,31.042c1.507,0,2.731-1.204,2.731-2.69s-1.224-2.69-2.731-2.69
		c-1.51,0-2.732,1.204-2.732,2.69S2.65,31.042,4.161,31.042z"/>
</g>
</svg>
